<svg width="10" height="10" viewBox="0 0 10 10" fill="none" xmlns="http://www.w3.org/2000/svg">
<path d="M6.1792 1.25V2.91667C6.1792 3.02717 6.21871 3.13315 6.28903 3.21129C6.35936 3.28943 6.45474 3.33333 6.5542 3.33333H8.0542" stroke="#4B93FF" stroke-width="0.5" stroke-linecap="round" stroke-linejoin="round"/>
<path d="M4.3042 7.08333H6.5542M4.3042 5.41667H6.5542M7.3042 8.75H3.5542C3.35529 8.75 3.16452 8.6622 3.02387 8.50592C2.88322 8.34964 2.8042 8.13768 2.8042 7.91667V2.08333C2.8042 1.86232 2.88322 1.65036 3.02387 1.49408C3.16452 1.3378 3.35529 1.25 3.5542 1.25H6.1792L8.0542 3.33333V7.91667C8.0542 8.13768 7.97518 8.34964 7.83453 8.50592C7.69388 8.6622 7.50311 8.75 7.3042 8.75Z" stroke="#4B93FF" stroke-width="0.5" stroke-linecap="round" stroke-linejoin="round"/>
</svg>
