<svg width="26" height="22" viewBox="0 0 26 22" fill="none" xmlns="http://www.w3.org/2000/svg">
<path d="M5.90191 2.95096C5.90191 3.7336 5.59101 4.48419 5.0376 5.0376C4.48419 5.59101 3.7336 5.90191 2.95096 5.90191C2.16831 5.90191 1.41773 5.59101 0.864315 5.0376C0.310904 4.48419 0 3.7336 0 2.95096C0 2.16831 0.310904 1.41773 0.864315 0.864315C1.41773 0.310903 2.16831 0 2.95096 0C3.7336 0 4.48419 0.310903 5.0376 0.864315C5.59101 1.41773 5.90191 2.16831 5.90191 2.95096ZM5.90191 10.8202C5.90191 11.6028 5.59101 12.3534 5.0376 12.9068C4.48419 13.4602 3.7336 13.7711 2.95096 13.7711C2.16831 13.7711 1.41773 13.4602 0.864315 12.9068C0.310904 12.3534 0 11.6028 0 10.8202C0 10.0375 0.310904 9.28694 0.864315 8.73353C1.41773 8.18012 2.16831 7.86922 2.95096 7.86922C3.7336 7.86922 4.48419 8.18012 5.0376 8.73353C5.59101 9.28694 5.90191 10.0375 5.90191 10.8202ZM5.90191 18.6894C5.90191 19.472 5.59101 20.2226 5.0376 20.776C4.48419 21.3294 3.7336 21.6403 2.95096 21.6403C2.16831 21.6403 1.41773 21.3294 0.864315 20.776C0.310904 20.2226 0 19.472 0 18.6894C0 17.9067 0.310904 17.1562 0.864315 16.6027C1.41773 16.0493 2.16831 15.7384 2.95096 15.7384C3.7336 15.7384 4.48419 16.0493 5.0376 16.6027C5.59101 17.1562 5.90191 17.9067 5.90191 18.6894Z" fill="#F8F8F8"/>
<path fill-rule="evenodd" clip-rule="evenodd" d="M7.86914 2.95095C7.86914 2.42919 8.07641 1.92879 8.44535 1.55985C8.81429 1.19091 9.31468 0.983643 9.83644 0.983643H23.6076C24.1293 0.983643 24.6297 1.19091 24.9987 1.55985C25.3676 1.92879 25.5749 2.42919 25.5749 2.95095C25.5749 3.47271 25.3676 3.9731 24.9987 4.34204C24.6297 4.71098 24.1293 4.91825 23.6076 4.91825H9.83644C9.31468 4.91825 8.81429 4.71098 8.44535 4.34204C8.07641 3.9731 7.86914 3.47271 7.86914 2.95095ZM7.86914 10.8202C7.86914 10.2984 8.07641 9.79801 8.44535 9.42907C8.81429 9.06013 9.31468 8.85286 9.83644 8.85286H23.6076C24.1293 8.85286 24.6297 9.06013 24.9987 9.42907C25.3676 9.79801 25.5749 10.2984 25.5749 10.8202C25.5749 11.3419 25.3676 11.8423 24.9987 12.2113C24.6297 12.5802 24.1293 12.7875 23.6076 12.7875H9.83644C9.31468 12.7875 8.81429 12.5802 8.44535 12.2113C8.07641 11.8423 7.86914 11.3419 7.86914 10.8202ZM7.86914 18.6894C7.86914 18.1676 8.07641 17.6672 8.44535 17.2983C8.81429 16.9293 9.31468 16.7221 9.83644 16.7221H23.6076C24.1293 16.7221 24.6297 16.9293 24.9987 17.2983C25.3676 17.6672 25.5749 18.1676 25.5749 18.6894C25.5749 19.2111 25.3676 19.7115 24.9987 20.0805C24.6297 20.4494 24.1293 20.6567 23.6076 20.6567H9.83644C9.31468 20.6567 8.81429 20.4494 8.44535 20.0805C8.07641 19.7115 7.86914 19.2111 7.86914 18.6894Z" fill="#F8F8F8"/>
</svg>
