<svg width="15" height="15" viewBox="0 0 15 15" fill="none" xmlns="http://www.w3.org/2000/svg">
<g clip-path="url(#clip0_134_311)">
<path d="M7.43644 0.00427246C3.63799 0.00427246 3.87516 1.6581 3.87516 1.6581L3.87938 3.37151H7.50417V3.88592H2.43966C2.43966 3.88592 0.0090332 3.60915 0.0090332 7.4571C0.0090332 11.3052 2.13055 11.1687 2.13055 11.1687H3.39666V9.38304C3.39666 9.38304 3.3284 7.25304 5.48431 7.25304H9.07946C9.07946 7.25304 11.0993 7.2858 11.0993 5.2931V1.99827C11.0993 1.99827 11.4061 0.00427246 7.43644 0.00427246ZM5.43773 1.15651C5.52339 1.15643 5.60822 1.17331 5.68737 1.20619C5.76652 1.23906 5.83844 1.28728 5.899 1.34809C5.95957 1.4089 6.0076 1.48111 6.04035 1.56058C6.07309 1.64004 6.0899 1.72521 6.08983 1.81121C6.0899 1.89721 6.07309 1.98238 6.04035 2.06185C6.0076 2.14132 5.95957 2.21352 5.899 2.27433C5.83844 2.33514 5.76652 2.38337 5.68737 2.41624C5.60822 2.44912 5.52339 2.466 5.43773 2.46592C5.35207 2.466 5.26724 2.44912 5.18809 2.41624C5.10894 2.38337 5.03702 2.33514 4.97646 2.27433C4.91589 2.21352 4.86786 2.14132 4.83511 2.06185C4.80237 1.98238 4.78556 1.89721 4.78563 1.81121C4.78556 1.72521 4.80237 1.64004 4.83511 1.56058C4.86786 1.48111 4.91589 1.4089 4.97646 1.34809C5.03702 1.28728 5.10894 1.23906 5.18809 1.20619C5.26724 1.17331 5.35207 1.15643 5.43773 1.15651Z" fill="url(#paint0_linear_134_311)"/>
<path d="M7.54441 14.9486C11.3429 14.9486 11.1057 13.2948 11.1057 13.2948L11.1015 11.5814H7.47662V11.067H12.5411C12.5411 11.067 14.9718 11.3438 14.9718 7.4957C14.9718 3.6477 12.8502 3.78417 12.8502 3.78417H11.5841V5.56976C11.5841 5.56976 11.6524 7.69976 9.49648 7.69976H5.90133C5.90133 7.69976 3.88147 7.66699 3.88147 9.65976V12.9546C3.88147 12.9546 3.57476 14.9486 7.54435 14.9486M9.54306 13.7965C9.4574 13.7965 9.37257 13.7797 9.29342 13.7468C9.21427 13.7139 9.14235 13.6657 9.08179 13.6049C9.02122 13.5441 8.97319 13.4719 8.94044 13.3924C8.9077 13.3129 8.89089 13.2278 8.89096 13.1418C8.89088 13.0558 8.90769 12.9706 8.94043 12.8911C8.97317 12.8116 9.0212 12.7394 9.08177 12.6786C9.14233 12.6178 9.21425 12.5696 9.29341 12.5367C9.37256 12.5038 9.4574 12.4869 9.54306 12.487C9.62872 12.4869 9.71355 12.5038 9.7927 12.5367C9.87185 12.5695 9.94377 12.6178 10.0043 12.6786C10.0649 12.7394 10.1129 12.8116 10.1457 12.8911C10.1784 12.9705 10.1952 13.0557 10.1952 13.1417C10.1952 13.2277 10.1784 13.3129 10.1457 13.3923C10.1129 13.4718 10.0649 13.544 10.0043 13.6048C9.94377 13.6656 9.87185 13.7138 9.7927 13.7467C9.71355 13.7796 9.62872 13.7965 9.54306 13.7965Z" fill="url(#paint1_linear_134_311)"/>
</g>
<defs>
<linearGradient id="paint0_linear_134_311" x1="143.799" y1="134.42" x2="888.232" y2="868.489" gradientUnits="userSpaceOnUse">
<stop stop-color="#387EB8"/>
<stop offset="1" stop-color="#366994"/>
</linearGradient>
<linearGradient id="paint1_linear_134_311" x1="216.116" y1="233.548" x2="1015.4" y2="986.13" gradientUnits="userSpaceOnUse">
<stop stop-color="#FFE052"/>
<stop offset="1" stop-color="#FFC331"/>
</linearGradient>
<clipPath id="clip0_134_311">
<rect width="15" height="15" fill="white"/>
</clipPath>
</defs>
</svg>
