<svg width="24" height="24" viewBox="0 0 24 24" fill="none" xmlns="http://www.w3.org/2000/svg">
<path d="M8.86171 18.3358C8.86171 18.3358 8.03123 18.8912 9.45352 19.0785C11.1769 19.3048 12.0575 19.2723 13.9561 18.8599C13.9561 18.8599 14.4563 19.2193 15.1535 19.5308C10.8958 21.627 5.51801 19.4093 8.86171 18.3358ZM8.34116 15.6C8.34116 15.6 7.40946 16.3926 8.83297 16.562C10.6739 16.7804 12.1274 16.7982 14.6437 16.2416C14.6437 16.2416 14.9909 16.647 15.5378 16.8685C10.3911 18.5983 4.65878 17.0046 8.34116 15.6Z" fill="#0074BD"/>
<path d="M12.9001 10.864C13.9346 12.0941 12.6288 13.2 12.6288 13.2C12.6288 13.2 15.2539 11.8004 14.0486 10.0468C12.9224 8.41231 12.0592 7.60046 16.733 4.80005C16.733 4.80023 9.39635 6.69265 12.9001 10.864Z" fill="#EA2D2E"/>
<path d="M18.8905 19.6015C18.8905 19.6015 19.5323 20.0774 18.1834 20.4453C15.6187 21.1441 7.5067 21.3547 5.25372 20.4733C4.44423 20.1563 5.96283 19.7168 6.44059 19.624C6.93873 19.527 7.22317 19.5447 7.22317 19.5447C6.32238 18.9744 1.40104 20.6651 4.72376 21.1501C13.7846 22.4711 21.2404 20.5552 18.8905 19.6015ZM9.39503 13.3966C9.39503 13.3966 5.26918 14.278 7.93409 14.5985C9.05948 14.7339 11.3019 14.7028 13.3921 14.5451C15.0999 14.4161 16.8136 14.1405 16.8136 14.1405C16.8136 14.1405 16.212 14.3726 15.7762 14.6399C11.5856 15.6312 3.49216 15.1695 5.82242 14.156C7.79241 13.2991 9.39503 13.3966 9.39503 13.3966ZM16.7965 17.1172C21.056 15.1271 19.0864 13.2145 17.7117 13.4722C17.3756 13.5351 17.2248 13.5899 17.2248 13.5899C17.2248 13.5899 17.3499 13.4134 17.5885 13.3375C20.308 12.478 22.3991 15.8733 16.7114 17.2181C16.7114 17.2178 16.7767 17.1647 16.7965 17.1172Z" fill="#0074BD"/>
<path d="M13.8484 0C13.8484 0 15.7749 2.50114 12.0207 6.34595C9.01009 9.43113 11.3343 11.1898 12.0197 13.2C10.2621 11.1428 8.97295 9.33148 9.8377 7.64587C11.1076 5.1721 14.6255 3.97222 13.8484 0Z" fill="#EA2D2E"/>
<path d="M10.2457 22.7602C14.1615 22.906 20.1763 22.6791 20.3187 21.6C20.3187 21.6 20.045 22.0091 17.0822 22.3336C13.7396 22.7001 9.61611 22.6574 7.17126 22.4223C7.17126 22.4224 7.67215 22.6639 10.2457 22.7602Z" fill="#0074BD"/>
</svg>
