<svg width="27" height="21" viewBox="0 0 27 21" fill="none" xmlns="http://www.w3.org/2000/svg">
<path d="M21.7584 9.01112C21.4915 4.87862 18.6178 0.893616 13.3472 0.893616C8.52654 0.893616 4.80904 4.47674 4.61217 9.25862C1.97467 10.0792 0.534668 12.9017 0.534668 14.9561C0.534668 18.1192 3.16342 20.8936 6.15967 20.8936H10.2222C10.305 20.8936 10.3845 20.8607 10.4431 20.8021C10.5017 20.7435 10.5347 20.664 10.5347 20.5811C10.5347 20.4982 10.5017 20.4187 10.4431 20.3601C10.3845 20.3015 10.305 20.2686 10.2222 20.2686H6.15967C3.49592 20.2686 1.15967 17.7861 1.15967 14.9561C1.15967 13.0492 2.83092 9.64362 6.15967 9.64362H7.09717C7.18005 9.64362 7.25953 9.61069 7.31814 9.55209C7.37674 9.49348 7.40967 9.414 7.40967 9.33112C7.40967 9.24824 7.37674 9.16875 7.31814 9.11014C7.25953 9.05154 7.18005 9.01862 7.09717 9.01862H6.15967C5.84154 9.01862 5.54092 9.05424 5.24779 9.10549C5.49279 5.36174 8.33842 1.51862 13.3472 1.51862C18.7147 1.51862 21.1597 5.73049 21.1597 9.64362V10.5811C21.1597 10.664 21.1926 10.7435 21.2512 10.8021C21.3098 10.8607 21.3893 10.8936 21.4722 10.8936C21.555 10.8936 21.6345 10.8607 21.6931 10.8021C21.7517 10.7435 21.7847 10.664 21.7847 10.5811V9.63799C23.6715 9.84487 26.1597 11.8699 26.1597 14.9561C26.1597 17.3474 23.8528 20.2686 21.1597 20.2686H16.4722C14.4484 20.2686 13.6597 19.4799 13.6597 17.4561V8.88299L16.2084 11.4267C16.2372 11.4566 16.2717 11.4805 16.3098 11.4969C16.3479 11.5133 16.3888 11.522 16.4303 11.5224C16.4718 11.5229 16.513 11.515 16.5514 11.4993C16.5898 11.4837 16.6248 11.4605 16.6541 11.4312C16.6835 11.4019 16.7068 11.3671 16.7225 11.3287C16.7383 11.2903 16.7463 11.2492 16.746 11.2077C16.7457 11.1662 16.7371 11.1252 16.7208 11.087C16.7045 11.0489 16.6807 11.0144 16.6509 10.9855L13.8628 8.20299C13.4915 7.83299 13.2034 7.83299 12.8328 8.20299L10.0447 10.9855C9.98774 11.0444 9.95625 11.1234 9.95696 11.2053C9.95767 11.2872 9.99053 11.3656 10.0485 11.4236C10.1064 11.4815 10.1848 11.5144 10.2667 11.5151C10.3487 11.5158 10.4276 11.4843 10.4865 11.4274L13.0347 8.88299V17.4561C13.0347 19.8336 14.0947 20.8936 16.4722 20.8936H21.1597C24.189 20.8936 26.7847 17.6286 26.7847 14.9561C26.7847 11.7267 24.1453 9.20112 21.7584 9.01112Z" fill="#48C84D"/>
</svg>
