<?xml version="1.0" encoding="utf-8"?>
<!DOCTYPE svg PUBLIC "-//W3C//DTD SVG 20010904//EN" "http://www.w3.org/TR/2001/REC-SVG-20010904/DTD/svg10.dtd">
<svg version="1.0" xmlns="http://www.w3.org/2000/svg" width="862pt" height="754pt" viewBox="0 0 862 754" style="" preserveAspectRatio="xMidYMid meet">
<g fill="#9A9A9AFF" stroke="#9A9A9AFF">
<path d="M 398.000 44.124 C 393.875 44.595 386.225 45.470 381.000 46.068 C 350.711 49.535 316.103 58.518 283.000 71.504 C 266.802 77.859 237.483 92.526 225.000 100.520 C 223.075 101.753 218.125 104.913 214.000 107.543 C 193.188 120.811 164.647 144.344 145.997 163.614 C 85.686 225.929 47.855 303.738 36.656 388.500 C 31.480 427.672 31.595 454.908 37.108 496.000 C 40.711 522.854 49.254 556.817 57.987 579.000 C 58.962 581.475 61.003 586.650 62.524 590.500 C 75.813 624.140 102.592 668.412 126.555 696.356 L 130.610 701.085 133.504 694.792 C 139.895 680.898 157.845 660.436 174.500 648.058 C 178.350 645.197 182.175 642.315 183.000 641.654 C 186.551 638.809 223.196 616.000 224.215 616.000 C 224.464 616.000 230.255 612.802 237.084 608.894 C 254.231 599.081 291.431 580.953 303.500 576.529 C 321.072 570.088 331.798 564.367 337.988 558.131 C 344.392 551.680 346.000 547.577 346.000 537.688 C 346.000 531.985 345.476 530.095 342.070 523.513 C 339.908 519.335 334.171 510.881 329.320 504.725 C 315.021 486.579 302.559 466.912 292.425 446.500 C 281.548 424.590 278.580 416.946 271.851 393.500 C 266.605 375.220 263.028 347.246 263.011 324.356 C 262.982 286.761 269.452 256.943 283.645 229.262 C 291.068 214.785 297.927 205.138 309.000 193.605 C 326.679 175.190 346.675 162.456 370.000 154.757 C 388.828 148.543 392.775 147.774 417.500 145.499 C 466.874 140.956 510.519 153.661 545.000 182.613 C 564.713 199.165 582.214 226.099 591.432 254.070 C 605.316 296.199 605.254 348.425 591.262 396.500 C 589.342 403.100 587.180 410.075 586.458 412.000 C 577.915 434.797 569.920 452.095 561.842 465.257 C 557.550 472.251 540.858 495.447 539.001 497.000 C 538.672 497.275 535.932 501.100 532.911 505.500 C 514.873 531.780 513.509 551.463 528.882 563.621 C 536.379 569.549 556.956 579.586 576.000 586.604 C 584.525 589.745 594.200 593.539 597.500 595.036 C 600.800 596.532 607.325 599.451 612.000 601.522 C 637.762 612.937 664.797 627.977 681.000 639.909 C 689.570 646.220 708.995 662.801 709.011 663.820 C 709.017 664.194 710.848 666.410 713.080 668.744 C 718.323 674.227 727.018 687.385 730.072 694.459 C 731.387 697.506 732.733 700.000 733.062 700.000 C 733.392 700.000 735.035 698.088 736.715 695.750 C 738.394 693.413 740.844 690.375 742.159 689.000 C 748.167 682.717 768.328 653.710 774.478 642.500 C 775.987 639.750 779.029 634.399 781.237 630.609 C 788.516 618.118 799.343 594.335 804.959 578.500 C 806.714 573.550 808.807 567.765 809.610 565.644 C 816.483 547.478 824.978 507.987 828.141 479.500 C 829.685 465.589 829.690 415.752 828.149 402.500 C 824.554 371.595 820.729 352.532 812.800 326.000 C 805.947 303.068 792.472 270.574 782.599 253.174 C 780.069 248.716 778.000 244.864 778.000 244.614 C 778.000 243.257 751.926 203.461 750.080 202.000 C 749.733 201.725 747.885 199.476 745.974 197.003 C 725.955 171.092 699.936 145.424 671.119 123.158 C 665.734 118.998 641.705 102.710 637.514 100.380 C 636.406 99.764 631.000 96.664 625.500 93.490 C 605.510 81.954 582.208 71.657 557.500 63.443 C 525.716 52.875 500.602 47.661 464.000 44.030 C 451.768 42.817 408.919 42.878 398.000 44.124 "/></g>
</svg>
