<svg width="3" height="15" viewBox="0 0 3 15" fill="none" xmlns="http://www.w3.org/2000/svg">
<path d="M0.125 1.25C0.125 1.58152 0.256696 1.89946 0.491116 2.13388C0.725537 2.3683 1.04348 2.5 1.375 2.5C1.70652 2.5 2.02446 2.3683 2.25888 2.13388C2.4933 1.89946 2.625 1.58152 2.625 1.25C2.625 0.918479 2.4933 0.600537 2.25888 0.366117C2.02446 0.131696 1.70652 0 1.375 0C1.04348 0 0.725537 0.131696 0.491116 0.366117C0.256696 0.600537 0.125 0.918479 0.125 1.25ZM0.125 7.5C0.125 7.83152 0.256696 8.14946 0.491116 8.38388C0.725537 8.6183 1.04348 8.75 1.375 8.75C1.70652 8.75 2.02446 8.6183 2.25888 8.38388C2.4933 8.14946 2.625 7.83152 2.625 7.5C2.625 7.16848 2.4933 6.85054 2.25888 6.61612C2.02446 6.3817 1.70652 6.25 1.375 6.25C1.04348 6.25 0.725537 6.3817 0.491116 6.61612C0.256696 6.85054 0.125 7.16848 0.125 7.5ZM0.125 13.75C0.125 14.0815 0.256696 14.3995 0.491116 14.6339C0.725537 14.8683 1.04348 15 1.375 15C1.70652 15 2.02446 14.8683 2.25888 14.6339C2.4933 14.3995 2.625 14.0815 2.625 13.75C2.625 13.4185 2.4933 13.1005 2.25888 12.8661C2.02446 12.6317 1.70652 12.5 1.375 12.5C1.04348 12.5 0.725537 12.6317 0.491116 12.8661C0.256696 13.1005 0.125 13.4185 0.125 13.75Z" fill="#F8F8F8"/>
</svg>
