<svg width="11" height="11" viewBox="0 0 11 11" fill="none" xmlns="http://www.w3.org/2000/svg">
<path opacity="0.5" d="M8.24992 4.58331H5.95825" stroke="#C2C8CC" stroke-width="1.25" stroke-linecap="round"/>
<path opacity="0.5" d="M4.58325 1.375H7.56242C7.77509 1.375 7.88188 1.375 7.97125 1.38692C8.27123 1.42648 8.54979 1.56389 8.76374 1.77784C8.9777 1.9918 9.11511 2.27035 9.15467 2.57033C9.16659 2.65971 9.16659 2.7665 9.16659 2.97917" stroke="#C2C8CC" stroke-width="1.25"/>
<path d="M0.916626 3.18541C0.916626 2.7807 0.916626 2.57857 0.948709 2.40991C1.0171 2.04775 1.19306 1.71461 1.45363 1.45396C1.7142 1.19331 2.04728 1.01725 2.40942 0.94874C2.57854 0.916656 2.78113 0.916656 3.18538 0.916656C3.36229 0.916656 3.45121 0.916656 3.53646 0.924448C3.90361 0.958929 4.25182 1.10333 4.53563 1.33878C4.60163 1.39332 4.66396 1.45566 4.78954 1.58124L5.04163 1.83332C5.41563 2.20732 5.60263 2.39432 5.82629 2.51853C5.94923 2.58705 6.07964 2.64118 6.21496 2.67986C6.46154 2.74999 6.726 2.74999 7.25446 2.74999H7.42588C8.63221 2.74999 9.23583 2.74999 9.62771 3.10291C9.66392 3.13499 9.69829 3.16936 9.73038 3.20557C10.0833 3.59745 10.0833 4.20107 10.0833 5.40741V6.41666C10.0833 8.14503 10.0833 9.00945 9.54613 9.54616C9.00942 10.0833 8.145 10.0833 6.41663 10.0833H4.58329C2.85492 10.0833 1.9905 10.0833 1.45379 9.54616C0.916626 9.00945 0.916626 8.14503 0.916626 6.41666V3.18541Z" stroke="#C2C8CC" stroke-width="1.25"/>
</svg>
