<svg width="21" height="20" viewBox="0 0 21 20" fill="none" xmlns="http://www.w3.org/2000/svg">
<path d="M18.0312 4.79688L10.4844 0.453125C10.3594 0.375 10.1875 0.34375 10 0.34375C9.8125 0.34375 9.64062 0.390625 9.51562 0.453125L2.01562 4.8125C1.75 4.96875 1.5625 5.35938 1.5625 5.65625V14.3594C1.5625 14.5313 1.59375 14.7344 1.71875 14.9063L18.4062 5.21875C18.3125 5.03125 18.1719 4.89062 18.0312 4.79688Z" fill="#659AD3"/>
<path d="M1.67188 14.8906C1.75 15.0156 1.85938 15.125 1.96875 15.1875L9.5 19.5469C9.625 19.625 9.79688 19.6562 9.98438 19.6562C10.1719 19.6562 10.3438 19.6094 10.4688 19.5469L17.9688 15.1875C18.2344 15.0312 18.4219 14.6406 18.4219 14.3438V5.64062C18.4219 5.5 18.4062 5.34375 18.3281 5.20312L1.67188 14.8906Z" fill="#03599C"/>
<path d="M16.5 10.309H15.8859V10.9391H15.2717V10.309H14.6577V9.67908H15.2717V9.04907H15.8859V9.67908H16.5V10.309ZM8.86108 4.5C10.8245 4.5 12.5412 5.583 13.4753 7.19839L13.5033 7.24749L11.1699 8.62596C10.7075 7.81022 9.84705 7.26127 8.86108 7.26127C7.38671 7.26127 6.19151 8.48745 6.19151 9.99997C6.19102 10.4767 6.31242 10.9452 6.54359 11.3588C7.00374 12.1829 7.86875 12.7387 8.86108 12.7387C9.84856 12.7387 10.7104 12.1882 11.1721 11.3702L11.1873 11.3429L13.5172 12.7277C12.5934 14.3837 10.8543 15.5 8.86108 15.5C6.87157 15.5 5.13518 14.3882 4.21007 12.737C3.75842 11.931 3.5 10.9965 3.5 9.99997C3.5 6.96251 5.90017 4.5 8.86108 4.5ZM13.6452 9.04901V9.67901H14.2592V10.309H13.6452V10.9391H13.0311V10.309H12.417V9.67908H13.0311V9.04907L13.6452 9.04901Z" fill="white"/>
</svg>
