<svg width="14" height="13" viewBox="0 0 14 13" fill="none" xmlns="http://www.w3.org/2000/svg">
<g clip-path="url(#clip0_323_32)">
<path d="M6.60866 0.00366211C3.31666 0.00366211 3.52221 1.43698 3.52221 1.43698L3.52587 2.92193H6.66736V3.36776H2.27812C2.27812 3.36776 0.17157 3.12789 0.17157 6.46278C0.17157 9.79776 2.01022 9.67949 2.01022 9.67949H3.10751V8.13193C3.10751 8.13193 3.04836 6.28593 4.91681 6.28593H8.0326C8.0326 6.28593 9.78315 6.31432 9.78315 4.58731V1.7318C9.78315 1.7318 10.049 0.00366211 6.60866 0.00366211ZM4.87644 1.00227C4.95068 1.0022 5.0242 1.01683 5.09279 1.04532C5.16139 1.07381 5.22372 1.11561 5.27621 1.16831C5.3287 1.22101 5.37033 1.28359 5.39871 1.35246C5.42709 1.42133 5.44166 1.49515 5.44159 1.56968C5.44166 1.64421 5.42709 1.71802 5.39871 1.7869C5.37033 1.85577 5.3287 1.91835 5.27621 1.97105C5.22372 2.02375 5.16139 2.06554 5.09279 2.09403C5.0242 2.12253 4.95068 2.13716 4.87644 2.13709C4.80221 2.13716 4.72868 2.12253 4.66009 2.09403C4.59149 2.06554 4.52916 2.02375 4.47667 1.97105C4.42418 1.91835 4.38255 1.85577 4.35417 1.7869C4.3258 1.71802 4.31122 1.64421 4.31129 1.56968C4.31122 1.49515 4.3258 1.42133 4.35417 1.35246C4.38255 1.28359 4.42418 1.22101 4.47667 1.16831C4.52916 1.11561 4.59149 1.07381 4.66009 1.04532C4.72868 1.01683 4.80221 1.0022 4.87644 1.00227Z" fill="url(#paint0_linear_323_32)"/>
<path d="M6.70213 12.9555C9.99413 12.9555 9.78858 11.5221 9.78858 11.5221L9.78492 10.0372H6.64339V9.59141H11.0326C11.0326 9.59141 13.1392 9.83128 13.1392 6.49629C13.1392 3.16136 11.3005 3.27963 11.3005 3.27963H10.2032V4.82714C10.2032 4.82714 10.2624 6.67314 8.39393 6.67314H5.27814C5.27814 6.67314 3.52759 6.64475 3.52759 8.37181V11.2274C3.52759 11.2274 3.26177 12.9555 6.70208 12.9555M8.4343 11.957C8.36006 11.957 8.28654 11.9424 8.21795 11.9139C8.14935 11.8854 8.08702 11.8436 8.03453 11.7909C7.98204 11.7382 7.94041 11.6756 7.91203 11.6068C7.88366 11.5379 7.86908 11.4641 7.86915 11.3895C7.86908 11.315 7.88364 11.2412 7.91202 11.1723C7.94039 11.1034 7.98202 11.0408 8.03451 10.9881C8.087 10.9354 8.14933 10.8936 8.21794 10.8651C8.28654 10.8366 8.36006 10.822 8.4343 10.8221C8.50854 10.822 8.58206 10.8366 8.65065 10.8651C8.71925 10.8936 8.78158 10.9354 8.83407 10.9881C8.88656 11.0408 8.92819 11.1034 8.95657 11.1723C8.98495 11.2411 8.99952 11.315 8.99945 11.3895C8.99952 11.464 8.98495 11.5378 8.95657 11.6067C8.92819 11.6756 8.88656 11.7382 8.83407 11.7909C8.78158 11.8436 8.71925 11.8854 8.65065 11.9138C8.58206 11.9423 8.50854 11.957 8.4343 11.957Z" fill="url(#paint1_linear_323_32)"/>
</g>
<defs>
<linearGradient id="paint0_linear_323_32" x1="124.79" y1="116.497" x2="769.965" y2="752.691" gradientUnits="userSpaceOnUse">
<stop stop-color="#387EB8"/>
<stop offset="1" stop-color="#366994"/>
</linearGradient>
<linearGradient id="paint1_linear_323_32" x1="187.464" y1="202.409" x2="880.18" y2="854.646" gradientUnits="userSpaceOnUse">
<stop stop-color="#FFE052"/>
<stop offset="1" stop-color="#FFC331"/>
</linearGradient>
<clipPath id="clip0_323_32">
<rect width="13" height="13" fill="white" transform="translate(0.163696)"/>
</clipPath>
</defs>
</svg>
