<svg width="17" height="15" viewBox="0 0 17 15" fill="none" xmlns="http://www.w3.org/2000/svg">
<path d="M13.725 2.36844H8.701L8.445 1.57896C8.27904 1.11572 7.9712 0.714888 7.56412 0.431986C7.15704 0.149085 6.67089 -0.0018765 6.173 1.76081e-05H2.525C1.88848 1.76081e-05 1.27803 0.249547 0.827944 0.693711C0.377856 1.13788 0.125 1.74029 0.125 2.36844V12.6316C0.125 13.2597 0.377856 13.8621 0.827944 14.3063C1.27803 14.7505 1.88848 15 2.525 15H13.725C14.3615 15 14.972 14.7505 15.4221 14.3063C15.8721 13.8621 16.125 13.2597 16.125 12.6316V4.73685C16.125 4.10871 15.8721 3.50629 15.4221 3.06213C14.972 2.61797 14.3615 2.36844 13.725 2.36844ZM14.525 12.6316C14.525 12.841 14.4407 13.0418 14.2907 13.1898C14.1407 13.3379 13.9372 13.4211 13.725 13.4211H2.525C2.31283 13.4211 2.10934 13.3379 1.95931 13.1898C1.80929 13.0418 1.725 12.841 1.725 12.6316V2.36844C1.725 2.15905 1.80929 1.95825 1.95931 1.81019C2.10934 1.66214 2.31283 1.57896 2.525 1.57896H6.173C6.34072 1.57854 6.50432 1.63014 6.6407 1.72647C6.77708 1.8228 6.87933 1.959 6.933 2.1158L7.365 3.41054C7.41867 3.56735 7.52092 3.70354 7.6573 3.79987C7.79368 3.89621 7.95728 3.94781 8.125 3.94738H13.725C13.9372 3.94738 14.1407 4.03056 14.2907 4.17861C14.4407 4.32667 14.525 4.52747 14.525 4.73685V12.6316Z" fill="#F8F8F8"/>
<path d="M8.125 8V11M9.625 9.5H6.625" stroke="#F8F8F8" stroke-linecap="round"/>
</svg>
