<svg width="13" height="17" viewBox="0 0 13 17" fill="none" xmlns="http://www.w3.org/2000/svg">
<path d="M1 3.50003V13.4952" stroke="#F8F8F8" stroke-width="1.24937" stroke-linecap="round"/>
<path d="M12.125 6.5V13.5" stroke="#F8F8F8" stroke-width="1.24937" stroke-linecap="round" stroke-linejoin="round"/>
<path d="M2.85425 1.5H7.48966" stroke="#F8F8F8" stroke-width="1.24937" stroke-linecap="round" stroke-linejoin="round"/>
<path d="M2.85425 15.5H10.2709" stroke="#F8F8F8" stroke-width="1.24937" stroke-linecap="round"/>
<path d="M12.1249 13.5C12.13 14.4989 11.1978 15.5 10.2708 15.5" stroke="#F8F8F8" stroke-width="1.24937" stroke-linecap="round" stroke-linejoin="round"/>
<path d="M1.00008 13.5C1.00008 14.5 1.92717 15.5 2.85425 15.5" stroke="#F8F8F8" stroke-width="1.24937" stroke-linecap="round" stroke-linejoin="round"/>
<path d="M1.00009 3.49854C1.00009 2.49999 1.92717 1.52226 2.85425 1.49999" stroke="#F8F8F8" stroke-width="1.24937" stroke-linecap="round" stroke-linejoin="round"/>
<path d="M12.1198 6.50448L7.4895 1.5" stroke="#F8F8F8" stroke-width="1.24937" stroke-linecap="round" stroke-linejoin="round"/>
<path d="M7.48959 4.50003C7.49244 5.49459 8.42041 6.50003 9.34375 6.50003" stroke="#F8F8F8" stroke-width="1.24937" stroke-linecap="round" stroke-linejoin="round"/>
<path d="M7.4895 4.5V1.5" stroke="#F8F8F8" stroke-width="1.24937" stroke-linecap="round" stroke-linejoin="round"/>
<path d="M9.34375 6.5H12.125" stroke="#F8F8F8" stroke-width="1.24937" stroke-linecap="round" stroke-linejoin="round"/>
<path d="M6.625 9.5V12.5M8.125 11H5.125" stroke="#F8F8F8" stroke-linecap="round"/>
</svg>
