<svg width="12" height="12" viewBox="0 0 12 12" fill="none" xmlns="http://www.w3.org/2000/svg">
<path d="M3.35997 4.55719L1.62841 6L3.35997 7.44281C3.4174 7.48987 3.46494 7.54784 3.49985 7.61336C3.53477 7.67889 3.55636 7.75068 3.5634 7.82459C3.57043 7.8985 3.56276 7.97308 3.54083 8.04401C3.5189 8.11495 3.48315 8.18084 3.43563 8.23789C3.38811 8.29494 3.32976 8.34201 3.26396 8.3764C3.19816 8.41079 3.1262 8.43181 3.05223 8.43825C2.97827 8.4447 2.90376 8.43643 2.833 8.41394C2.76224 8.39144 2.69664 8.35516 2.63997 8.30719L0.389972 6.43219C0.326602 6.3794 0.275616 6.31332 0.240627 6.23863C0.205637 6.16394 0.1875 6.08248 0.1875 6C0.1875 5.91752 0.205637 5.83605 0.240627 5.76137C0.275616 5.68668 0.326602 5.6206 0.389972 5.56781L2.63997 3.69281C2.75476 3.59874 2.90206 3.55385 3.0498 3.56791C3.19754 3.58196 3.33374 3.65384 3.42872 3.76786C3.5237 3.88189 3.56977 4.02884 3.5569 4.17668C3.54402 4.32453 3.47324 4.4613 3.35997 4.55719ZM11.61 5.56781L9.35997 3.69281C9.3033 3.64484 9.2377 3.60856 9.16694 3.58606C9.09619 3.56357 9.02168 3.5553 8.94771 3.56174C8.87374 3.56819 8.80178 3.58921 8.73598 3.6236C8.67018 3.65799 8.61184 3.70506 8.56432 3.76211C8.5168 3.81916 8.48104 3.88505 8.45911 3.95598C8.43718 4.02692 8.42951 4.10149 8.43655 4.17541C8.44358 4.24932 8.46518 4.32111 8.50009 4.38663C8.535 4.45216 8.58255 4.51012 8.63997 4.55719L10.3715 6L8.63997 7.44281C8.58255 7.48987 8.535 7.54784 8.50009 7.61336C8.46518 7.67889 8.44358 7.75068 8.43655 7.82459C8.42951 7.8985 8.43718 7.97308 8.45911 8.04401C8.48104 8.11495 8.5168 8.18084 8.56432 8.23789C8.61184 8.29494 8.67018 8.34201 8.73598 8.3764C8.80178 8.41079 8.87374 8.43181 8.94771 8.43825C9.02168 8.4447 9.09619 8.43643 9.16694 8.41394C9.2377 8.39144 9.3033 8.35516 9.35997 8.30719L11.61 6.43219C11.6733 6.3794 11.7243 6.31332 11.7593 6.23863C11.7943 6.16394 11.8124 6.08248 11.8124 6C11.8124 5.91752 11.7943 5.83605 11.7593 5.76137C11.7243 5.68668 11.6733 5.6206 11.61 5.56781ZM7.69216 1.34625C7.62272 1.321 7.54899 1.30967 7.47518 1.31292C7.40137 1.31617 7.32892 1.33393 7.26197 1.36518C7.19502 1.39644 7.13489 1.44058 7.085 1.49507C7.03511 1.54957 6.99645 1.61337 6.97122 1.68281L3.97122 9.93281C3.92037 10.073 3.92726 10.2276 3.99037 10.3627C4.05348 10.4978 4.16765 10.6023 4.30778 10.6533C4.36931 10.676 4.43439 10.6876 4.49997 10.6875C4.61546 10.6875 4.72816 10.652 4.82275 10.5857C4.91735 10.5195 4.98926 10.4257 5.02872 10.3172L8.02872 2.06719C8.05397 1.99775 8.0653 1.92402 8.06205 1.85021C8.0588 1.7764 8.04104 1.70395 8.00979 1.637C7.97853 1.57005 7.9344 1.50991 7.8799 1.46003C7.8254 1.41014 7.7616 1.37148 7.69216 1.34625Z" fill="#28C23C"/>
</svg>
